<svg width="55" height="55" viewBox="0 0 55 55" fill="none" xmlns="http://www.w3.org/2000/svg">
<g clip-path="url(#clip0)">
<path d="M52.6063 28.3863C54.1187 26.9577 54.9999 24.947 54.9999 22.8481C54.9999 19.3442 52.5818 16.3111 49.2533 15.4712C48.8236 12.7859 47.2363 10.4172 44.8739 8.99678C44.3953 6.28116 42.0077 4.23198 39.1948 4.23198C38.1187 4.23198 37.0917 4.52288 36.1992 5.06837C35.4629 3.76857 34.4435 2.64891 33.1997 1.78395C31.5217 0.616923 29.5507 0 27.4999 0C23.9856 0 20.7484 1.8556 18.9508 4.81485C18.1688 4.43469 17.3038 4.23209 16.4274 4.23209C13.7639 4.23209 11.4575 6.07652 10.8295 8.61232C8.09745 9.94746 6.22057 12.5086 5.74738 15.4711C2.41838 16.3107 0 19.344 0 22.8481C0 24.9469 0.881073 26.9574 2.39335 28.3861C1.91264 29.471 1.66149 30.6505 1.66149 31.8438C1.66149 36.5525 5.49247 40.3835 10.2013 40.3835C10.3094 40.3835 10.4186 40.3812 10.529 40.3767C11.5189 42.0814 13.3355 43.1457 15.3518 43.1457C17.204 43.1457 18.9136 42.2257 19.944 40.736L23.8133 43.8631L23.8177 45.4549C23.82 48.2751 22.9758 50.9936 21.3766 53.3166C21.0403 53.8053 21.1637 54.4742 21.6523 54.8105C21.8383 54.9386 22.0504 55 22.2605 55C22.6021 55 22.938 54.8374 23.1463 54.5348C24.9935 51.8514 25.9685 48.711 25.9661 45.4511L25.9603 43.3458C25.9593 43.0224 25.8128 42.7165 25.5612 42.5133L19.1329 37.3183C18.068 36.4572 17.4573 35.178 17.4573 33.8086V29.2191C17.8943 30.2991 18.6495 31.2171 19.6057 31.8574V33.8086C19.6057 34.5263 19.9258 35.1966 20.484 35.648L24.2107 38.6599C24.4056 38.8175 24.6448 38.8987 24.8862 38.8987C25.0435 38.8987 25.2019 38.8641 25.3494 38.7935C25.723 38.6149 25.9605 38.2373 25.9602 37.8232L25.9536 31.8952C26.1098 31.793 26.262 31.684 26.4089 31.5662C27.2867 31.6876 28.1652 31.6934 29.0432 31.5867L29.0418 32.8596C29.0413 33.2738 29.279 33.6513 29.6527 33.83C29.8002 33.9004 29.9585 33.935 30.1159 33.935C30.3573 33.935 30.5967 33.8537 30.7916 33.696L31.9447 32.7636C32.2308 32.8069 32.5217 32.8302 32.8159 32.8302C34.4367 32.8302 35.9033 32.1581 36.9522 31.0782C36.6772 31.5606 36.3127 31.9945 35.8675 32.3545L29.4411 37.5473C29.1889 37.751 29.0424 38.0576 29.042 38.3817L29.034 45.4533C29.0316 48.7111 30.0066 51.8515 31.8539 54.535C32.0621 54.8376 32.3981 55.0002 32.7397 55.0002C32.9497 55.0002 33.1618 54.9388 33.3478 54.8107C33.8365 54.4744 33.9599 53.8055 33.6235 53.3168C32.0243 50.9938 31.1802 48.2753 31.1824 45.4555L31.1876 40.79C31.7767 40.9473 32.3869 41.0287 33.0011 41.0287C33.7032 41.0287 34.3883 40.9269 35.0479 40.7251C36.0774 42.2215 37.7914 43.1459 39.6483 43.1459C41.6647 43.1459 43.4813 42.0818 44.4711 40.3769C44.5814 40.3814 44.6908 40.3837 44.7989 40.3837C45.6643 40.3837 46.5185 40.2544 47.3379 39.9996C47.9044 39.8235 48.2209 39.2214 48.0447 38.6548C47.8684 38.0884 47.2663 37.7716 46.6999 37.9481C46.0872 38.1386 45.4476 38.2352 44.7989 38.2352C44.5296 38.2352 44.2583 38.2171 43.9691 38.1796C43.4832 38.1169 43.0173 38.39 42.8346 38.8439C42.3082 40.1521 41.0574 40.9974 39.6483 40.9974C38.2923 40.9974 37.0599 40.1957 36.5088 38.9549C36.3915 38.6908 36.1727 38.485 35.9019 38.3842C35.6311 38.2835 35.3312 38.2959 35.0696 38.419C34.4194 38.7251 33.7235 38.8803 33.0011 38.8803C32.4904 38.8803 31.9842 38.7992 31.5026 38.6438L37.2181 34.0255C38.7053 32.8229 39.591 31.0673 39.6821 29.1695C39.9989 29.2231 40.3214 29.2519 40.6472 29.2519C43.7395 29.2519 46.2713 26.8056 46.4091 23.7465C48.1033 22.1722 49.1408 20.0392 49.3366 17.7451C51.4057 18.5365 52.8515 20.5518 52.8515 22.8481C52.8515 24.5753 52.0195 26.2196 50.6258 27.2465C50.1851 27.5713 50.0591 28.1754 50.3333 28.6493C50.8401 29.5253 51.1251 30.4811 51.1802 31.4901C51.2116 32.0626 51.6855 32.5058 52.2519 32.5058C52.2717 32.5058 52.2916 32.5053 52.3116 32.5041C52.904 32.4717 53.3578 31.9653 53.3255 31.3728C53.2693 30.3455 53.0231 29.3283 52.6063 28.3863ZM17.7824 38.989L18.2651 39.3792C17.6436 40.375 16.5459 40.9973 15.3518 40.9973C13.9427 40.9973 12.6919 40.152 12.1655 38.8438C11.9829 38.3898 11.5169 38.1167 11.031 38.1795C10.746 38.2163 10.467 38.2351 10.2013 38.2351C6.67701 38.2351 3.80992 35.368 3.80992 31.8439C3.80992 30.7226 4.10619 29.618 4.66661 28.6495C4.94086 28.1756 4.81485 27.5715 4.3741 27.2466C2.98052 26.2197 2.14843 24.5753 2.14843 22.8481C2.14843 20.5519 3.59422 18.5365 5.66316 17.7449C5.88596 20.3393 7.1907 22.726 9.26737 24.3177C9.67246 27.1241 12.0842 29.2517 14.9752 29.2517C15.0869 29.2517 15.1981 29.2477 15.3089 29.2414V33.8085C15.309 35.8297 16.2104 37.7179 17.7824 38.989ZM23.8094 35.573L21.8347 33.9771C21.7821 33.9346 21.7543 33.8763 21.7543 33.8086V32.7329C22.0957 32.796 22.447 32.8302 22.8065 32.8302C23.1449 32.8302 23.479 32.8007 23.8063 32.7435L23.8094 35.573ZM44.6479 22.435C44.389 22.6504 44.2484 23.0612 44.2641 23.3975C44.2668 23.4548 44.2641 23.3395 44.2641 23.3975C44.2641 25.3932 42.6427 27.1032 40.6471 27.1032C39.7512 27.1032 38.8914 26.7731 38.2261 26.1738C37.9085 25.8875 37.4512 25.817 37.0618 25.9943C36.6726 26.1716 36.4267 26.5989 36.4341 27.0265C36.4341 29.0222 34.8116 30.6818 32.8158 30.6818C31.8678 30.6818 30.9712 30.317 30.2912 29.6544C30.0887 29.4572 29.819 29.3496 29.5415 29.3496C29.4745 29.3496 29.407 29.356 29.3399 29.3688C28.3244 29.5628 27.2983 29.5629 26.282 29.3688C25.9373 29.3031 25.5823 29.4097 25.3309 29.6545C24.6509 30.317 23.7544 30.6818 22.8064 30.6818C20.8107 30.6818 19.1881 28.9843 19.1881 26.9906C19.1955 26.5629 18.9496 26.1716 18.5604 25.9943C18.1711 25.8171 17.7139 25.8874 17.3961 26.1738C16.7308 26.7732 15.871 27.1032 14.9752 27.1032C13.0483 27.1032 11.4607 25.5975 11.3609 23.6754C11.3436 23.3406 11.1708 23.033 10.894 22.844C8.94232 21.5113 7.77722 19.3078 7.77722 16.9493C7.77722 14.0512 9.50864 11.4629 12.1883 10.3552C12.5417 10.2091 12.7908 9.88601 12.8424 9.50703C13.0845 7.72458 14.6257 6.38042 16.4271 6.38042C17.2584 6.38042 18.0405 6.6552 18.6887 7.17512C18.948 7.38298 19.289 7.45925 19.6117 7.38159C19.9347 7.30403 20.2037 7.08134 20.3402 6.77852C21.6082 3.9659 24.4184 2.14843 27.4999 2.14843C30.7545 2.14843 33.6245 4.1077 34.8116 7.13989C34.9451 7.48095 35.2432 7.73049 35.6023 7.80193C35.9619 7.87315 36.3324 7.75681 36.5862 7.49288C37.2757 6.77562 38.2022 6.38063 39.1947 6.38063C41.0866 6.38063 42.672 7.85768 42.8038 9.74314C42.8298 10.1159 43.0477 10.4483 43.3789 10.6209C45.7496 11.8562 47.2223 14.2812 47.2223 16.9495C47.2226 19.0742 46.2841 21.0737 44.6479 22.435Z" fill="#989898"/>
<path d="M43.6901 38.9897C44.2452 39.1193 44.8252 39.1828 45.4211 39.1714C49.2864 39.0976 52.3601 35.9044 52.2863 32.0391C52.2579 30.5529 51.7684 29.1837 50.9567 28.0654" stroke="#989898" stroke-width="2.2" stroke-linecap="round"/>
</g>
<defs>
<clipPath id="clip0">
<rect width="55" height="55" fill="white"/>
</clipPath>
</defs>
</svg>
