<svg width="58" height="53" viewBox="0 0 58 53" fill="none" xmlns="http://www.w3.org/2000/svg">
<path d="M39.489 26.1382H18.5124C17.6378 26.1385 16.8571 26.8306 16.5596 27.8693C16.262 28.908 16.5114 30.071 17.1833 30.7781L20.3172 34.0749C20.6906 34.468 21.1612 34.6839 21.6474 34.6854H36.3542C36.8404 34.6839 37.3109 34.468 37.6844 34.0749L40.8183 30.7781C41.4902 30.071 41.7395 28.908 41.442 27.8693C41.1443 26.8305 40.3636 26.1384 39.489 26.1382ZM39.5857 28.9026L36.4527 32.1994C36.4253 32.2273 36.3911 32.2424 36.356 32.2422H21.6492C21.614 32.2429 21.5796 32.2278 21.5525 32.1994L18.4186 28.9026C18.371 28.8532 18.3536 28.771 18.3752 28.6982C18.3968 28.6254 18.4527 28.5779 18.5143 28.5802H39.4909C39.5527 28.5774 39.6089 28.6245 39.6308 28.6976C39.6527 28.7705 39.6353 28.853 39.5876 28.9026H39.5857Z" fill="#989898"/>
<path d="M46.4299 26.7487L43.2863 30.0454C42.6121 30.7514 42.3611 31.9157 42.6591 32.9559C42.9571 33.996 43.7398 34.6879 44.6155 34.6854H52.2019C53.2697 34.6854 54.1353 33.5921 54.1353 32.2433V28.5803C54.1353 27.2315 53.2697 26.1382 52.2019 26.1382H47.7601C47.2739 26.1399 46.8035 26.3557 46.4299 26.7487ZM52.2019 28.5802V32.2432H44.6155C44.5523 32.251 44.4943 32.199 44.4791 32.1211C44.4534 32.0506 44.4718 31.9669 44.5226 31.9233L47.6672 28.6192C47.6943 28.5908 47.7287 28.5761 47.7639 28.5777L52.2019 28.5802Z" fill="#989898"/>
<path d="M11.5725 26.7487C11.2003 26.3571 10.7317 26.1413 10.2472 26.1382H5.80054C4.73278 26.1382 3.86719 27.2315 3.86719 28.5803V32.2433C3.86719 33.5921 4.73278 34.6854 5.80054 34.6854H13.385C14.2608 34.6884 15.0439 33.9967 15.3421 32.9565C15.6403 31.9162 15.3894 30.7515 14.7151 30.0456L11.5725 26.7487ZM13.5233 32.1211C13.5082 32.199 13.4501 32.251 13.387 32.2432H5.80054V28.5801H10.2472C10.2824 28.5785 10.3168 28.5932 10.3439 28.6216L13.4894 31.9269C13.5357 31.9734 13.5499 32.0545 13.5233 32.1211Z" fill="#989898"/>
<path fill-rule="evenodd" clip-rule="evenodd" d="M12.5653 38.3477H5.79866C5.26483 38.3477 4.83203 38.8943 4.83203 39.5686C4.83203 40.2429 5.26483 40.7895 5.79866 40.7895H12.5653C13.0992 40.7895 13.532 40.2429 13.532 39.5686C13.532 38.8943 13.0992 38.3477 12.5653 38.3477Z" fill="#989898"/>
<path fill-rule="evenodd" clip-rule="evenodd" d="M52.1982 38.3477H45.4315C44.8976 38.3477 44.4648 38.8943 44.4648 39.5686C44.4648 40.2429 44.8976 40.7895 45.4315 40.7895H52.1982C52.732 40.7895 53.1648 40.2429 53.1648 39.5686C53.1648 38.8943 52.732 38.3477 52.1982 38.3477Z" fill="#989898"/>
<path fill-rule="evenodd" clip-rule="evenodd" d="M37.7006 38.3477H20.3006C19.7668 38.3477 19.334 38.8943 19.334 39.5686C19.334 40.2429 19.7668 40.7895 20.3006 40.7895H37.7006C38.2344 40.7895 38.6672 40.2429 38.6672 39.5686C38.6672 38.8943 38.2344 38.3477 37.7006 38.3477Z" fill="#989898"/>
<path d="M58 15.1483C58 13.1252 56.7016 11.4852 55.1 11.4852H53.1666C52.3244 11.4887 51.5254 11.9576 50.98 12.7686L49.1646 4.17467C48.5087 1.68018 46.6607 -0.00240094 44.5797 2.57165e-06H13.4202C11.3392 -0.00240094 9.49125 1.68018 8.83525 4.17467L7.01987 12.7686C6.47453 11.9577 5.67563 11.4888 4.83326 11.4852H2.9C1.2984 11.4852 1.1657e-05 13.1252 1.1657e-05 15.1483C1.1657e-05 17.1713 1.2984 18.8114 2.9 18.8114H4.43309L0.849713 23.3378C0.303796 24.0229 -0.00217658 24.9556 1.1657e-05 25.9276V42.0109C0.00505412 43.5577 0.778833 44.9337 1.93337 45.4494V49.3372C1.93337 51.3602 3.23175 53.0003 4.83335 53.0003H11.6C13.2016 53.0003 14.5 51.3602 14.5 49.3372V45.6741H43.5V49.3372C43.5 51.3602 44.7984 53.0003 46.4 53.0003H53.1666C54.7682 53.0003 56.0666 51.3602 56.0666 49.3372V45.4494C57.2212 44.9338 57.9948 43.5577 58 42.0109V25.9276C58.0022 24.9556 57.6962 24.0229 57.1503 23.3378L53.5669 18.8114H55.1C56.7016 18.8114 58 17.1713 58 15.1483ZM10.6691 4.94752C11.0635 3.45145 12.1718 2.44209 13.4202 2.44197H44.5797C45.8282 2.44209 46.9364 3.45145 47.3308 4.94752L49.8915 16.3694H8.10838L10.6691 4.94752ZM2.9 16.3694C2.36616 16.3694 1.93337 15.8227 1.93337 15.1484C1.93337 14.4741 2.36616 13.9274 2.9 13.9274H4.83335C5.36719 13.9274 5.79998 14.4741 5.79998 15.1484V16.3694H2.9ZM12.5667 49.3372C12.5667 50.0115 12.1339 50.5582 11.6 50.5582H4.83335C4.29952 50.5582 3.86672 50.0115 3.86672 49.3372V45.6741H12.5667V49.3372ZM54.1333 49.3372C54.1333 50.0115 53.7005 50.5582 53.1666 50.5582H46.4C45.8661 50.5582 45.4333 50.0115 45.4333 49.3372V45.6741H54.1333V49.3372ZM55.7834 25.0643C55.9639 25.294 56.0656 25.604 56.0666 25.9276V42.0109C56.0666 42.6852 55.6338 43.2319 55.1 43.2319H2.9C2.36616 43.2319 1.93337 42.6852 1.93337 42.0109V25.9276C1.93441 25.6039 2.03612 25.2939 2.2166 25.0643L7.16687 18.8115H50.8331L55.7834 25.0643ZM52.2 16.3694V15.1484C52.2 14.4741 52.6328 13.9274 53.1666 13.9274H55.1C55.6338 13.9274 56.0666 14.4741 56.0666 15.1484C56.0666 15.8227 55.6338 16.3694 55.1 16.3694H52.2Z" fill="#989898"/>
</svg>
