<svg width="57" height="57" viewBox="0 0 57 57" fill="none" xmlns="http://www.w3.org/2000/svg">
<path d="M56.0399 50.7049L56.0404 50.7052L56.0433 50.6951C56.2386 50.0263 55.921 49.2627 55.2563 48.9883C54.5922 48.7141 53.837 49.025 53.5675 49.7015C52.6377 51.9934 50.4696 53.4698 48.0419 53.4698C45.744 53.4698 43.6906 52.1759 42.6795 50.0669L42.6795 50.0668C42.4601 49.6108 41.9842 49.39 41.5204 49.39C41.0565 49.39 40.5806 49.6108 40.3613 50.0668C39.3501 52.1593 37.2799 53.4698 34.9988 53.4698C32.7009 53.4698 30.6475 52.1759 29.6364 50.0669L29.6364 50.0668C29.417 49.6108 28.9411 49.39 28.4773 49.39C28.0135 49.39 27.5377 49.6107 27.3183 50.0667C26.3071 52.1592 24.2369 53.4698 21.9558 53.4698C19.6578 53.4698 17.6044 52.1759 16.5934 50.0669L16.5933 50.0668C16.374 49.6108 15.8981 49.39 15.4342 49.39C14.9704 49.39 14.4946 49.6107 14.2752 50.0667C13.264 52.1592 11.1938 53.4698 8.91268 53.4698C6.485 53.4698 4.31694 51.9935 3.38717 49.7016C3.11764 49.0251 2.3624 48.7141 1.69834 48.9883C1.0318 49.2634 0.729505 50.0316 0.997234 50.7041L0.997426 50.7045C2.32175 53.982 5.44067 56.1 8.92925 56.1C11.4874 56.1 13.8506 54.9587 15.4591 53.0351C17.067 54.9586 19.4143 56.1 21.9889 56.1C24.5471 56.1 26.9102 54.9587 28.5187 53.0351C30.1267 54.9586 32.474 56.1 35.0486 56.1C37.6067 56.1 39.9699 54.9587 41.5784 53.0351C43.1863 54.9586 45.5336 56.1 48.1082 56.1C51.5971 56.1 54.699 53.9818 56.0399 50.7049ZM55.9902 41.0179L55.9905 41.017C56.2582 40.3446 55.9559 39.5764 55.2894 39.3012C54.6254 39.0271 53.8701 39.338 53.6006 40.0145C52.6708 42.3064 50.5028 43.7828 48.0751 43.7828C45.7771 43.7828 43.7238 42.4889 42.7127 40.3799L42.7126 40.3798C42.4933 39.9238 42.0174 39.7029 41.5535 39.7029C41.0897 39.7029 40.6138 39.9238 40.3944 40.3798C39.3832 42.4723 37.313 43.7828 35.032 43.7828C32.7341 43.7828 30.6807 42.4889 29.6696 40.3799L29.6695 40.3798C29.4502 39.9238 28.9743 39.7029 28.5104 39.7029C28.0467 39.7029 27.5708 39.9237 27.3514 40.3796C26.3403 42.4722 24.27 43.7828 21.9889 43.7828C19.691 43.7828 17.6376 42.4889 16.6265 40.3799L16.6264 40.3798C16.4071 39.9238 15.9312 39.7029 15.4674 39.7029C15.0036 39.7029 14.5277 39.9237 14.3084 40.3796C13.2972 42.4722 11.2269 43.7828 8.94582 43.7828C6.51815 43.7828 4.35009 42.3065 3.42031 40.0146C3.15078 39.338 2.39555 39.0271 1.73148 39.3012C1.06516 39.5763 0.762843 40.3441 1.03013 41.0164C2.28813 44.2952 5.39123 46.413 8.87953 46.413C11.4377 46.413 13.8008 45.2717 15.4093 43.3481C17.0173 45.2716 19.3646 46.413 21.9392 46.413C24.4974 46.413 26.8605 45.2717 28.469 43.3481C30.0769 45.2716 32.4242 46.413 34.9988 46.413C37.557 46.413 39.9201 45.2717 41.5287 43.3481C43.1366 45.2716 45.4839 46.413 48.0585 46.413C51.5474 46.413 54.6493 44.2948 55.9902 41.0179ZM55.1855 6.14728C55.1855 3.25855 52.8719 0.9 50.0307 0.9C47.1895 0.9 44.8759 3.25855 44.8759 6.14728V19.5484H24.5086V6.14728C24.5086 4.6988 25.6588 3.53019 27.0769 3.53019C28.4949 3.53019 29.6451 4.6988 29.6451 6.14728C29.6451 6.87585 30.2186 7.46238 30.9384 7.46238C31.6583 7.46238 32.2317 6.87585 32.2317 6.14728C32.2317 3.25855 29.9181 0.9 27.0769 0.9C24.2356 0.9 21.922 3.25855 21.922 6.14728V38.9211C21.922 39.6497 22.4955 40.2362 23.2153 40.2362C23.9352 40.2362 24.5086 39.6497 24.5086 38.9211V33.5026H44.8759V38.9211C44.8759 39.6497 45.4493 40.2362 46.1691 40.2362C46.889 40.2362 47.4624 39.6497 47.4624 38.9211V6.14728C47.4624 4.6988 48.6126 3.53019 50.0307 3.53019C51.4488 3.53019 52.599 4.6988 52.599 6.14728C52.599 6.87585 53.1724 7.46238 53.8922 7.46238C54.6121 7.46238 55.1855 6.87585 55.1855 6.14728ZM24.5086 30.8893V22.1786H44.8759V30.8893H24.5086Z" fill="#989898" stroke="#989898" stroke-width="0.2"/>
</svg>
